<svg data-v-fde0c5aa="" xmlns="http://www.w3.org/2000/svg" viewBox="0 0 300 300" class="iconLeftSlogan"><!----><defs data-v-fde0c5aa=""><!----></defs><rect data-v-fde0c5aa="" fill="#E7F3FC" x="0" y="0" width="300px" height="300px" class="logo-background-square"></rect><defs data-v-fde0c5aa=""><!----></defs><g data-v-fde0c5aa="" id="d85e8072-8803-45dd-8fec-f92950b8a9fa" fill="#253D52" transform="matrix(3.5531222820281982,0,0,3.5531222820281982,126.5447208104801,119.60507907168872)"><path d="M4.56 8.99C3.00 8.99 2.60 7.99 2.60 5.80C2.60 3.60 3.00 2.49 4.56 2.49C6.13 2.49 6.52 3.60 6.52 5.80C6.52 7.99 6.13 8.99 4.56 8.99ZM4.56 10.67C7.56 10.67 8.51 9.02 8.51 5.80C8.51 2.58 7.56 0.81 4.56 0.81C1.57 0.81 0.62 2.58 0.62 5.80C0.62 9.02 1.57 10.67 4.56 10.67ZM10.16 10.50L12.10 10.50L12.10 3.14L12.31 3.14L14.17 10.08L16.10 10.08L17.96 3.14L18.17 3.14L18.17 10.50L20.10 10.50L20.10 0.98L16.81 0.98L15.13 7.92L13.45 0.98L10.16 0.98ZM22.18 10.50L28.34 10.50L28.34 8.82L24.11 8.82L24.11 6.54L27.50 6.54L27.50 4.89L24.11 4.89L24.11 2.66L28.34 2.66L28.34 0.98L22.18 0.98ZM29.93 10.50L31.86 10.50L31.86 2.66L32.00 2.66L34.38 10.50L37.56 10.50L37.56 0.98L35.63 0.98L35.63 8.82L35.49 8.82L33.19 0.98L29.93 0.98Z"></path></g><defs data-v-fde0c5aa=""><linearGradient data-v-fde0c5aa="" gradientTransform="rotate(25)" id="06f20fd7-e11d-4b4c-8c69-87dabf99f331" x1="0%" y1="0%" x2="100%" y2="0%"><stop data-v-fde0c5aa="" offset="0%" stop-color="#007DE8" stop-opacity="1"></stop><stop data-v-fde0c5aa="" offset="100%" stop-color="#A1C3DB" stop-opacity="1"></stop></linearGradient></defs><g data-v-fde0c5aa="" id="a962d74b-7b52-403d-ad21-6bcc47f19ae2" stroke="none" fill="url(#06f20fd7-e11d-4b4c-8c69-87dabf99f331)" transform="matrix(0.8318584561347961,0,0,0.8318584561347961,36.672322295787424,108.81731000645303)"><circle cx="55.538" cy="19.677" r="4.901"></circle><circle cx="23.472" cy="42.596" r="4.9"></circle><circle cx="45.736" cy="65.145" r="4.901"></circle><circle cx="12.968" cy="82.662" r="4.901"></circle><circle cx="81.493" cy="25.552" r="4.901"></circle><circle cx="47.69" cy="89.1" r="4.9"></circle><path d="M12.968 83.811a1.163 1.163 0 0 1-.704-.24 1.171 1.171 0 0 1-.403-.6L4.046 56.078a1.15 1.15 0 0 1 .438-1.258l51.203-36.386a1.152 1.152 0 0 1 1.616 1.587L16.579 79.428l28.615-15.297a1.16 1.16 0 0 1 .542-.135h46.606l-11.85-37.638L58.655 7.024a1.15 1.15 0 0 1 1.524-1.722l22.075 19.545c.156.139.272.317.335.516L95.006 64.8c.109.348.047.729-.17 1.023a1.147 1.147 0 0 1-.927.471H46.024l-32.492 17.37a1.231 1.231 0 0 1-.564.147zm-6.486-27.59l6.912 23.785L51.75 24.053 6.482 56.221z"></path><path d="M45.737 66.295c-.077 0-.155-.008-.233-.023h-.002l-.047-.012c-.003 0-.004 0-.006-.002a1.14 1.14 0 0 1-.539-.312L10.716 31.75 6.281 55.965a1.15 1.15 0 0 1-2.262-.414l4.829-26.37a1.148 1.148 0 1 1 1.943-.606l34.292 34.292 9.896-42.656-28.495-7.184a1.148 1.148 0 0 1 .081-2.247l32.653-5.749a1.15 1.15 0 0 1 1.319 1.392l-2.81 12.109 24.046 6.062a1.152 1.152 0 0 1 .57 1.887L46.603 65.9a1.05 1.05 0 0 1-.224.197l-.001.002h-.002l-.001.002h-.001a.663.663 0 0 1-.049.031h-.001l-.002.002h-.002a1.136 1.136 0 0 1-.583.161zm11.472-45.522l-9.354 40.323 31.499-34.74-22.145-5.583zm-24.947-8.661l23.237 5.858 2.406-10.373-25.643 4.515z"></path><path d="M47.69 90.25c-.069 0-.14-.006-.21-.02l-34.722-6.439a1.15 1.15 0 0 1 .419-2.26l33.245 6.164-1.82-22.307-18.92-53.09a1.15 1.15 0 1 1 2.166-.772L46.819 64.76c.033.094.055.191.062.293l1.955 23.953a1.153 1.153 0 0 1-1.146 1.244z"></path><path d="M47.689 90.25a1.152 1.152 0 0 1-1.014-1.692l33.803-63.391a1.151 1.151 0 0 1 2.03 1.082L48.705 89.641a1.15 1.15 0 0 1-1.016.609z"></path></g><defs data-v-fde0c5aa=""><!----></defs><g data-v-fde0c5aa="" id="5dbf5a4c-894f-4f6c-a26c-020d589f71d4" fill="#253D52" transform="matrix(0.3644886016845703,0,0,0.3644886016845703,128.54718787370214,166.7514659197405)"><path d="M5.11 10.57C2.86 10.57 1.60 8.93 1.60 6.85C1.60 4.76 2.86 3.12 5.11 3.12C6.64 3.12 7.64 3.85 8.12 4.98L9.23 4.98C8.64 3.29 7.13 2.10 5.03 2.10C2.24 2.10 0.55 4.21 0.55 6.85C0.55 9.48 2.24 11.59 5.03 11.59C7.13 11.59 8.64 10.40 9.23 8.71L8.12 8.71C7.64 9.84 6.64 10.57 5.11 10.57ZM21.84 2.10C19.03 2.10 17.14 4.21 17.14 6.85C17.14 9.48 19.03 11.59 21.84 11.59C24.65 11.59 26.54 9.48 26.54 6.85C26.54 4.21 24.65 2.10 21.84 2.10ZM21.84 10.57C19.59 10.57 18.19 8.93 18.19 6.85C18.19 4.76 19.59 3.12 21.84 3.12C24.09 3.12 25.49 4.76 25.49 6.85C25.49 8.93 24.09 10.57 21.84 10.57ZM35.22 2.21L35.22 11.48L41.33 11.48L41.33 10.47L36.27 10.47L36.27 2.21ZM49.69 2.21L49.69 11.48L55.79 11.48L55.79 10.47L50.74 10.47L50.74 2.21ZM68.31 2.21L66.99 2.21L63.06 11.48L64.22 11.48L65.35 8.79L69.94 8.79L71.08 11.48L72.24 11.48ZM65.76 7.83L67.65 3.30L69.54 7.83ZM86.25 6.75C86.91 6.45 87.50 5.85 87.50 4.66C87.50 3.54 86.76 2.21 84.57 2.21L80.42 2.21L80.42 11.48L84.81 11.48C86.93 11.48 87.98 10.43 87.98 9.04C87.98 7.66 87.04 7 86.25 6.75ZM81.47 3.21L84.69 3.21C85.96 3.21 86.45 3.98 86.45 4.75C86.45 5.88 85.54 6.36 84.57 6.36L81.47 6.36ZM84.92 10.49L81.47 10.49L81.47 7.31L84.81 7.31C86.28 7.31 86.93 8.09 86.93 8.96C86.93 9.93 86.20 10.49 84.92 10.49ZM100.80 2.10C97.99 2.10 96.10 4.21 96.10 6.85C96.10 9.48 97.99 11.59 100.80 11.59C103.61 11.59 105.50 9.48 105.50 6.85C105.50 4.21 103.61 2.10 100.80 2.10ZM100.80 10.57C98.55 10.57 97.15 8.93 97.15 6.85C97.15 4.76 98.55 3.12 100.80 3.12C103.05 3.12 104.45 4.76 104.45 6.85C104.45 8.93 103.05 10.57 100.80 10.57ZM115.23 7.92L118.45 7.92L120.69 11.48L121.94 11.48L119.50 7.74C120.54 7.50 121.74 6.90 121.74 5.11C121.74 3.35 120.53 2.21 118.62 2.21L114.18 2.21L114.18 11.48L115.23 11.48ZM115.23 3.21L118.50 3.21C119.81 3.21 120.69 3.93 120.69 5.11C120.69 6.55 119.43 6.93 118.44 6.93L115.23 6.93ZM134.71 2.21L133.39 2.21L129.46 11.48L130.62 11.48L131.75 8.79L136.35 8.79L137.48 11.48L138.64 11.48ZM132.16 7.83L134.05 3.30L135.94 7.83ZM152.57 2.21L145.05 2.21L145.05 3.22L148.29 3.22L148.29 11.48L149.34 11.48L149.34 3.22L152.57 3.22ZM161.95 2.21L160.90 2.21L160.90 11.48L161.95 11.48ZM177.69 2.21L174.48 10.29L171.28 2.21L170.13 2.21L173.88 11.48L175.08 11.48L178.84 2.21ZM193.83 3.22L193.83 2.21L187.01 2.21L187.01 11.48L193.83 11.48L193.83 10.47L188.06 10.47L188.06 7.35L193.21 7.35L193.21 6.33L188.06 6.33L188.06 3.22ZM216.66 2.21L215.35 2.21L211.41 11.48L212.58 11.48L213.71 8.79L218.30 8.79L219.44 11.48L220.60 11.48ZM214.12 7.83L216.01 3.30L217.90 7.83ZM235.72 2.21L235.72 10.01L229.99 2.21L228.77 2.21L228.77 11.48L229.82 11.48L229.82 3.65L235.55 11.48L236.77 11.48L236.77 2.21ZM252.98 2.21L252.98 10.01L247.25 2.21L246.04 2.21L246.04 11.48L247.09 11.48L247.09 3.65L252.81 11.48L254.03 11.48L254.03 2.21ZM267.41 2.10C264.60 2.10 262.71 4.21 262.71 6.85C262.71 9.48 264.60 11.59 267.41 11.59C270.23 11.59 272.12 9.48 272.12 6.85C272.12 4.21 270.23 2.10 267.41 2.10ZM267.41 10.57C265.16 10.57 263.76 8.93 263.76 6.85C263.76 4.76 265.16 3.12 267.41 3.12C269.67 3.12 271.07 4.76 271.07 6.85C271.07 8.93 269.67 10.57 267.41 10.57ZM286.99 2.21L279.47 2.21L279.47 3.22L282.70 3.22L282.70 11.48L283.75 11.48L283.75 3.22L286.99 3.22ZM298.65 2.21L297.33 2.21L293.40 11.48L294.56 11.48L295.69 8.79L300.29 8.79L301.42 11.48L302.58 11.48ZM296.10 7.83L297.99 3.30L299.88 7.83ZM316.51 2.21L308.99 2.21L308.99 3.22L312.23 3.22L312.23 11.48L313.28 11.48L313.28 3.22L316.51 3.22ZM325.89 2.21L324.84 2.21L324.84 11.48L325.89 11.48ZM339.28 2.10C336.46 2.10 334.57 4.21 334.57 6.85C334.57 9.48 336.46 11.59 339.28 11.59C342.09 11.59 343.98 9.48 343.98 6.85C343.98 4.21 342.09 2.10 339.28 2.10ZM339.28 10.57C337.02 10.57 335.62 8.93 335.62 6.85C335.62 4.76 337.02 3.12 339.28 3.12C341.53 3.12 342.93 4.76 342.93 6.85C342.93 8.93 341.53 10.57 339.28 10.57ZM359.60 2.21L359.60 10.01L353.88 2.21L352.66 2.21L352.66 11.48L353.71 11.48L353.71 3.65L359.44 11.48L360.65 11.48L360.65 2.21Z"></path></g></svg>