<svg data-v-423bf9ae="" xmlns="http://www.w3.org/2000/svg" viewBox="0 0 224.78704093903457 60" class="font"><!----><!----><!----><g data-v-423bf9ae="" id="5c644975-edd4-401c-8b4a-572b3fdc64e3" fill="white" transform="matrix(6.085192680358887,0,0,6.085192680358887,-3.7728166580200195,-4.929004669189453)"><path d="M4.56 8.99C3.00 8.99 2.60 7.99 2.60 5.80C2.60 3.60 3.00 2.49 4.56 2.49C6.13 2.49 6.52 3.60 6.52 5.80C6.52 7.99 6.13 8.99 4.56 8.99ZM4.56 10.67C7.56 10.67 8.51 9.02 8.51 5.80C8.51 2.58 7.56 0.81 4.56 0.81C1.57 0.81 0.62 2.58 0.62 5.80C0.62 9.02 1.57 10.67 4.56 10.67ZM10.16 10.50L12.10 10.50L12.10 3.14L12.31 3.14L14.17 10.08L16.10 10.08L17.96 3.14L18.17 3.14L18.17 10.50L20.10 10.50L20.10 0.98L16.81 0.98L15.13 7.92L13.45 0.98L10.16 0.98ZM22.18 10.50L28.34 10.50L28.34 8.82L24.11 8.82L24.11 6.54L27.50 6.54L27.50 4.89L24.11 4.89L24.11 2.66L28.34 2.66L28.34 0.98L22.18 0.98ZM29.93 10.50L31.86 10.50L31.86 2.66L32.00 2.66L34.38 10.50L37.56 10.50L37.56 0.98L35.63 0.98L35.63 8.82L35.49 8.82L33.19 0.98L29.93 0.98Z"></path></g><!----><!----></svg>